<svg width="148" height="45" viewBox="0 0 148 45" fill="none" xmlns="http://www.w3.org/2000/svg">
<path d="M53.328 19H48V18.304C48.576 18.048 49.152 17.856 49.728 17.728L55.8 1.912H56.496L62.568 17.728C62.888 17.792 63.2 17.864 63.504 17.944C63.824 18.024 64.12 18.144 64.392 18.304V19H58.248V18.304C58.568 18.176 58.896 18.064 59.232 17.968C59.568 17.872 59.896 17.792 60.216 17.728L58.584 13.336H52.848L51.264 17.728C51.936 17.824 52.624 18.016 53.328 18.304V19ZM53.328 12.088H58.176L56.28 7L55.824 4.936H55.776L55.176 7.048L53.328 12.088ZM66.3988 2.2H72.9748V2.896C72.5908 3.04 72.2068 3.168 71.8228 3.28C71.4388 3.376 71.0548 3.448 70.6708 3.496V17.752H76.1908L77.6068 13.888H78.2308C78.2788 14.224 78.3188 14.616 78.3508 15.064C78.3988 15.496 78.4308 15.952 78.4468 16.432C78.4788 16.896 78.4948 17.352 78.4948 17.8C78.4948 18.248 78.4868 18.648 78.4708 19H66.3988V18.304C66.7828 18.128 67.1348 18 67.4548 17.92C67.7748 17.84 68.0788 17.776 68.3668 17.728V3.496C67.9988 3.432 67.6468 3.352 67.3108 3.256C66.9748 3.144 66.6708 3.024 66.3988 2.896V2.2ZM80.4347 2.2H86.5307V2.896C86.2267 3.024 85.9227 3.136 85.6187 3.232C85.3147 3.328 85.0107 3.416 84.7067 3.496V13.312C84.7067 14.16 84.7947 14.872 84.9707 15.448C85.1627 16.008 85.4347 16.464 85.7867 16.816C86.1387 17.152 86.5707 17.4 87.0827 17.56C87.6107 17.704 88.2027 17.776 88.8587 17.776C90.1227 17.776 91.1067 17.432 91.8107 16.744C92.5147 16.04 92.8667 14.888 92.8667 13.288V3.712C92.4987 3.584 92.1547 3.456 91.8347 3.328C91.5147 3.184 91.2267 3.04 90.9707 2.896V2.2H96.0827V2.896C95.7787 3.072 95.4667 3.232 95.1467 3.376C94.8427 3.52 94.5307 3.632 94.2107 3.712V13.336C94.2107 14.36 94.0747 15.24 93.8027 15.976C93.5307 16.712 93.1467 17.32 92.6507 17.8C92.1707 18.28 91.5787 18.64 90.8747 18.88C90.1867 19.104 89.4187 19.216 88.5707 19.216C86.5707 19.216 85.0427 18.768 83.9867 17.872C82.9307 16.96 82.4027 15.568 82.4027 13.696V3.496C81.7467 3.4 81.0907 3.2 80.4347 2.896V2.2ZM117.728 19H111.776V18.304C112.096 18.176 112.416 18.072 112.736 17.992C113.056 17.896 113.384 17.808 113.72 17.728V6.928L113.816 4.12H113.624L112.832 6.688L107.912 19H107.288L102.608 6.688L101.744 3.88H101.528L101.552 6.928V17.728C101.856 17.792 102.16 17.872 102.464 17.968C102.768 18.064 103.072 18.176 103.376 18.304V19H98.3597V18.304C98.6637 18.176 98.9757 18.064 99.2957 17.968C99.6317 17.856 99.9677 17.768 100.304 17.704V3.496C99.9677 3.432 99.6317 3.352 99.2957 3.256C98.9757 3.144 98.6557 3.024 98.3357 2.896V2.2H103.256L107.432 13.168L108.248 15.64H108.272L109.088 13.12L113.408 2.2H117.752V2.896C117.464 3.024 117.168 3.144 116.864 3.256C116.56 3.352 116.248 3.432 115.928 3.496V17.752C116.264 17.816 116.576 17.896 116.864 17.992C117.168 18.072 117.456 18.176 117.728 18.304V19ZM131.46 2.2H136.644V2.896C135.972 3.344 135.316 3.664 134.676 3.856V19.288H133.308L124.596 6.064L123.66 4.192H123.588L123.804 6.064V17.464C124.46 17.64 125.076 17.92 125.652 18.304V19H120.468V18.304C120.756 18.128 121.06 17.976 121.38 17.848C121.716 17.704 122.068 17.576 122.436 17.464V3.712C122.116 3.584 121.796 3.448 121.476 3.304C121.172 3.16 120.884 3.016 120.612 2.872V2.2H124.668L132.228 13.6L133.332 15.664H133.428L133.308 13.6V3.856C132.972 3.712 132.644 3.56 132.324 3.4C132.02 3.24 131.732 3.072 131.46 2.896V2.2ZM145.966 19H139.822V18.304C140.446 18.016 141.086 17.824 141.742 17.728V3.496C141.422 3.432 141.102 3.352 140.782 3.256C140.462 3.144 140.142 3.024 139.822 2.896V2.2H145.966V2.896C145.678 3.024 145.366 3.144 145.03 3.256C144.694 3.352 144.366 3.432 144.046 3.496V17.728C144.382 17.792 144.718 17.872 145.054 17.968C145.39 18.064 145.694 18.176 145.966 18.304V19Z" fill="white"/>
<path d="M48.48 39V38.088C48.752 37.928 49.056 37.792 49.392 37.68C49.728 37.552 50.08 37.456 50.448 37.392V23.808C50.08 23.728 49.72 23.632 49.368 23.52C49.032 23.392 48.736 23.256 48.48 23.112V22.2H51.264C51.536 22.2 51.872 22.192 52.272 22.176C52.672 22.16 53.088 22.144 53.52 22.128C53.952 22.096 54.368 22.072 54.768 22.056C55.184 22.024 55.536 22.008 55.824 22.008C57.216 22.008 58.456 22.192 59.544 22.56C60.648 22.928 61.576 23.464 62.328 24.168C63.096 24.872 63.68 25.744 64.08 26.784C64.496 27.824 64.704 29.024 64.704 30.384C64.704 31.712 64.512 32.92 64.128 34.008C63.744 35.096 63.168 36.024 62.4 36.792C61.632 37.56 60.656 38.16 59.472 38.592C58.304 39.008 56.928 39.216 55.344 39.216C55.136 39.216 54.856 39.2 54.504 39.168C54.152 39.152 53.776 39.128 53.376 39.096C52.976 39.08 52.576 39.056 52.176 39.024C51.776 39.008 51.424 39 51.12 39H48.48ZM55.512 23.568C55.224 23.568 54.936 23.576 54.648 23.592C54.36 23.608 54.112 23.632 53.904 23.664V37.56C53.968 37.576 54.08 37.592 54.24 37.608C54.4 37.608 54.56 37.616 54.72 37.632C54.896 37.632 55.064 37.64 55.224 37.656C55.384 37.656 55.504 37.656 55.584 37.656C56.512 37.656 57.296 37.464 57.936 37.08C58.592 36.696 59.128 36.176 59.544 35.52C59.96 34.864 60.264 34.096 60.456 33.216C60.648 32.336 60.744 31.4 60.744 30.408C60.744 29.528 60.64 28.68 60.432 27.864C60.24 27.048 59.936 26.32 59.52 25.68C59.104 25.04 58.56 24.528 57.888 24.144C57.232 23.76 56.44 23.568 55.512 23.568ZM66.6079 30.6C66.6079 29.352 66.7839 28.2 67.1359 27.144C67.4879 26.072 68.0079 25.152 68.6959 24.384C69.3839 23.6 70.2319 22.992 71.2399 22.56C72.2479 22.128 73.4079 21.912 74.7199 21.912C76.0319 21.912 77.1919 22.128 78.1999 22.56C79.2079 22.992 80.0479 23.6 80.7199 24.384C81.4079 25.152 81.9279 26.072 82.2799 27.144C82.6319 28.2 82.8079 29.352 82.8079 30.6C82.8079 31.848 82.6319 33.008 82.2799 34.08C81.9279 35.136 81.4079 36.056 80.7199 36.84C80.0479 37.608 79.2079 38.208 78.1999 38.64C77.1919 39.072 76.0319 39.288 74.7199 39.288C73.4079 39.288 72.2479 39.072 71.2399 38.64C70.2319 38.208 69.3839 37.608 68.6959 36.84C68.0079 36.056 67.4879 35.136 67.1359 34.08C66.7839 33.008 66.6079 31.848 66.6079 30.6ZM70.6879 30.6C70.6879 31.624 70.7679 32.576 70.9279 33.456C71.0879 34.32 71.3359 35.072 71.6719 35.712C72.0239 36.336 72.4639 36.832 72.9919 37.2C73.5359 37.552 74.1839 37.728 74.9359 37.728C75.6239 37.728 76.2079 37.552 76.6879 37.2C77.1679 36.832 77.5599 36.336 77.8639 35.712C78.1679 35.072 78.3839 34.32 78.5119 33.456C78.6559 32.576 78.7279 31.624 78.7279 30.6C78.7279 29.576 78.6479 28.632 78.4879 27.768C78.3439 26.888 78.1039 26.136 77.7679 25.512C77.4479 24.872 77.0159 24.376 76.4719 24.024C75.9439 23.656 75.2959 23.472 74.5279 23.472C73.7919 23.472 73.1759 23.656 72.6799 24.024C72.1839 24.376 71.7839 24.872 71.4799 25.512C71.1919 26.136 70.9839 26.888 70.8559 27.768C70.7439 28.632 70.6879 29.576 70.6879 30.6ZM95.5256 22.2H101.478V23.112C101.174 23.352 100.838 23.568 100.47 23.76C100.102 23.936 99.7576 24.072 99.4376 24.168V39.288H97.3976L88.9256 27.048L87.9656 25.2H87.8936L88.1096 27.12V37.128C88.4296 37.208 88.7816 37.344 89.1656 37.536C89.5656 37.712 89.9016 37.896 90.1736 38.088V39H84.2456V38.088C84.5336 37.896 84.8456 37.72 85.1816 37.56C85.5336 37.384 85.8936 37.24 86.2616 37.128V24.024C85.9416 23.896 85.6216 23.752 85.3016 23.592C84.9816 23.432 84.6936 23.264 84.4376 23.088V22.2H89.6216L96.5096 32.184L97.6136 34.248H97.7096L97.5896 32.184V24.168C97.2056 24.04 96.8296 23.888 96.4616 23.712C96.1096 23.52 95.7976 23.32 95.5256 23.112V22.2ZM107.881 39H101.953V38.088C102.209 37.928 102.481 37.792 102.769 37.68C103.073 37.552 103.369 37.456 103.657 37.392L109.849 21.912H111.625L117.649 37.392C117.969 37.456 118.289 37.552 118.609 37.68C118.929 37.792 119.209 37.928 119.449 38.088V39H111.937V38.088C112.241 37.944 112.569 37.808 112.921 37.68C113.273 37.552 113.609 37.456 113.929 37.392L112.537 33.576H107.209L105.793 37.392C106.529 37.488 107.225 37.72 107.881 38.088V39ZM107.785 32.016H112.033L110.473 27.432L110.017 25.368H109.969L109.441 27.48L107.785 32.016ZM129.401 39H121.145V38.088C121.465 37.96 121.825 37.832 122.225 37.704C122.641 37.56 123.057 37.456 123.473 37.392V23.76H120.689L119.153 27.864H118.169C118.105 27.544 118.041 27.136 117.977 26.64C117.913 26.144 117.857 25.632 117.809 25.104C117.761 24.576 117.721 24.056 117.689 23.544C117.657 23.016 117.641 22.568 117.641 22.2H132.929C132.929 22.584 132.913 23.032 132.881 23.544C132.849 24.056 132.809 24.576 132.761 25.104C132.713 25.632 132.657 26.144 132.593 26.64C132.529 27.12 132.465 27.528 132.401 27.864H131.393L129.857 23.76H127.073V37.392C127.489 37.472 127.897 37.568 128.297 37.68C128.713 37.792 129.081 37.928 129.401 38.088V39ZM146.393 22.2C146.361 22.92 146.305 23.664 146.225 24.432C146.145 25.2 146.041 25.92 145.913 26.592H144.929L143.825 23.76H139.337V29.64H142.265L143.321 27.792H144.089C144.169 28.576 144.209 29.448 144.209 30.408C144.209 31.368 144.169 32.264 144.089 33.096H143.321L142.265 31.2H139.337V37.44H144.017L145.289 34.392H146.273C146.337 34.696 146.401 35.04 146.465 35.424C146.529 35.808 146.577 36.208 146.609 36.624C146.657 37.024 146.689 37.432 146.705 37.848C146.737 38.264 146.753 38.648 146.753 39H133.769V38.088C134.041 37.944 134.345 37.808 134.681 37.68C135.017 37.552 135.369 37.456 135.737 37.392V23.808C135.417 23.744 135.073 23.656 134.705 23.544C134.353 23.416 134.041 23.272 133.769 23.112V22.2H146.393Z" fill="#FF9F1C"/>
<line x1="40" y1="6" x2="40" y2="37" stroke="#FF9F1C" stroke-width="2" stroke-linecap="round"/>
<line x1="40" y1="23.3687" x2="40" y2="37.0002" stroke="#2C2B29" stroke-width="2" stroke-linecap="round"/>
<line x1="116" y1="44" x2="147" y2="44" stroke="white" stroke-width="2" stroke-linecap="round"/>
<line x1="133.368" y1="44" x2="147" y2="44" stroke="#999592" stroke-width="2" stroke-linecap="round"/>
<path d="M12.8287 21.8127H15.8125C17.4535 21.8127 19.0273 22.4646 20.1877 23.6249C21.3481 24.7853 22 26.3591 22 28.0002H12.3736L12.375 29.3752H23.375V28.0002C23.3707 26.5371 22.948 25.1058 22.1568 23.8752H26.125C27.4247 23.8748 28.6979 24.2429 29.797 24.9367C30.896 25.6306 31.7759 26.6217 32.3345 27.7953C29.0826 32.0867 23.8178 34.8752 17.875 34.8752C14.0786 34.8752 10.8625 34.0639 8.25 32.6408V19.8478C9.92284 20.0874 11.5025 20.7653 12.8287 21.8127ZM5.5 18.3752C5.83678 18.3752 6.16184 18.4988 6.41351 18.7226C6.66518 18.9464 6.82597 19.2548 6.86538 19.5893L6.875 19.7502V32.1252C6.875 32.4898 6.73013 32.8396 6.47227 33.0974C6.21441 33.3553 5.86467 33.5002 5.5 33.5002H2.75C2.38533 33.5002 2.03559 33.3553 1.77773 33.0974C1.51987 32.8396 1.375 32.4898 1.375 32.1252V19.7502C1.375 19.3855 1.51987 19.0357 1.77773 18.7779C2.03559 18.52 2.38533 18.3752 2.75 18.3752H5.5ZM18.7633 10.9158L19.25 11.4039L19.7368 10.9172C20.0555 10.5957 20.4346 10.3404 20.8523 10.1658C21.2699 9.99128 21.718 9.90095 22.1707 9.90002C22.6234 9.8991 23.0718 9.98759 23.4902 10.1604C23.9085 10.3333 24.2887 10.587 24.6087 10.9072C24.9288 11.2273 25.1824 11.6075 25.3552 12.026C25.5279 12.4444 25.6162 12.8928 25.6152 13.3455C25.6141 13.7982 25.5237 14.2462 25.349 14.6639C25.1744 15.0815 24.9189 15.4605 24.5974 15.7792L19.25 21.1252L13.9012 15.7764C13.5798 15.4577 13.3245 15.0786 13.1499 14.6609C12.9754 14.2432 12.885 13.7952 12.8841 13.3425C12.8832 12.8898 12.9717 12.4414 13.1445 12.023C13.3174 11.6046 13.5711 11.2245 13.8913 10.9044C14.2114 10.5844 14.5916 10.3307 15.0101 10.158C15.4285 9.98527 15.8769 9.8969 16.3296 9.89796C16.7823 9.89901 17.2303 9.98947 17.648 10.1641C18.0656 10.3388 18.4446 10.5942 18.7633 10.9158Z" fill="white"/>
</svg>
